<svg width="24" height="21" viewBox="0 0 24 21" fill="none" xmlns="http://www.w3.org/2000/svg">
<path d="M10.715 16.0714C10.715 16.4124 10.8504 16.7394 11.0915 16.9806C11.3327 17.2217 11.6597 17.3571 12.0007 17.3571C12.3417 17.3571 12.6687 17.2217 12.9098 16.9806C13.1509 16.7394 13.2864 16.4124 13.2864 16.0714C13.2864 15.7304 13.1509 15.4034 12.9098 15.1623C12.6687 14.9212 12.3417 14.7857 12.0007 14.7857C11.6597 14.7857 11.3327 14.9212 11.0915 15.1623C10.8504 15.4034 10.715 15.7304 10.715 16.0714ZM11.1435 7.92857V12.8571C11.1435 12.975 11.24 13.0714 11.3578 13.0714H12.6435C12.7614 13.0714 12.8578 12.975 12.8578 12.8571V7.92857C12.8578 7.81071 12.7614 7.71429 12.6435 7.71429H11.3578C11.24 7.71429 11.1435 7.81071 11.1435 7.92857ZM23.8855 19.7143L12.7426 0.428571C12.5766 0.141964 12.29 0 12.0007 0C11.7114 0 11.4221 0.141964 11.2587 0.428571L0.115857 19.7143C-0.213607 20.2875 0.198893 21 0.857822 21H23.1435C23.8025 21 24.215 20.2875 23.8855 19.7143ZM2.89889 18.967L12.0007 3.21161L21.1025 18.967H2.89889Z" fill="#244A64"/>
</svg>
